<mxfile host="app.diagrams.net" modified="2023-10-11T20:46:47.982Z" agent="Mozilla/5.0 (Windows NT 10.0; Win64; x64; rv:109.0) Gecko/20100101 Firefox/118.0" etag="NUi4kMv5RMd1a15s_66_" version="22.0.4" type="github">
  <diagram name="Page-1" id="c4acf3e9-155e-7222-9cf6-157b1a14988f">
    <mxGraphModel dx="2524" dy="754" grid="1" gridSize="10" guides="1" tooltips="1" connect="1" arrows="1" fold="1" page="1" pageScale="1" pageWidth="850" pageHeight="1100" background="none" math="0" shadow="0">
      <root>
        <mxCell id="0" />
        <mxCell id="1" parent="0" />
        <mxCell id="e_0R9Qmwsrqz8bwr_fZI-1" value="Banco" style="swimlane;fontStyle=1;align=center;verticalAlign=top;childLayout=stackLayout;horizontal=1;startSize=26;horizontalStack=0;resizeParent=1;resizeParentMax=0;resizeLast=0;collapsible=1;marginBottom=0;whiteSpace=wrap;html=1;" parent="1" vertex="1">
          <mxGeometry x="320" y="100" width="270" height="138" as="geometry" />
        </mxCell>
        <mxCell id="e_0R9Qmwsrqz8bwr_fZI-2" value="- clientes : ArrayList&amp;lt;Cliente&amp;gt;" style="text;strokeColor=none;fillColor=none;align=left;verticalAlign=top;spacingLeft=4;spacingRight=4;overflow=hidden;rotatable=0;points=[[0,0.5],[1,0.5]];portConstraint=eastwest;whiteSpace=wrap;html=1;" parent="e_0R9Qmwsrqz8bwr_fZI-1" vertex="1">
          <mxGeometry y="26" width="270" height="26" as="geometry" />
        </mxCell>
        <mxCell id="e_0R9Qmwsrqz8bwr_fZI-5" value="- solicitudes : ArrayList&amp;lt;Solicitud&amp;gt;" style="text;strokeColor=none;fillColor=none;align=left;verticalAlign=top;spacingLeft=4;spacingRight=4;overflow=hidden;rotatable=0;points=[[0,0.5],[1,0.5]];portConstraint=eastwest;whiteSpace=wrap;html=1;" parent="e_0R9Qmwsrqz8bwr_fZI-1" vertex="1">
          <mxGeometry y="52" width="270" height="26" as="geometry" />
        </mxCell>
        <mxCell id="e_0R9Qmwsrqz8bwr_fZI-3" value="" style="line;strokeWidth=1;fillColor=none;align=left;verticalAlign=middle;spacingTop=-1;spacingLeft=3;spacingRight=3;rotatable=0;labelPosition=right;points=[];portConstraint=eastwest;strokeColor=inherit;" parent="e_0R9Qmwsrqz8bwr_fZI-1" vertex="1">
          <mxGeometry y="78" width="270" height="8" as="geometry" />
        </mxCell>
        <mxCell id="e_0R9Qmwsrqz8bwr_fZI-6" value="&lt;div&gt;+ addCliente(cliente : Cliente)&lt;/div&gt;&lt;div&gt;&lt;br&gt;&lt;/div&gt;" style="text;strokeColor=none;fillColor=none;align=left;verticalAlign=top;spacingLeft=4;spacingRight=4;overflow=hidden;rotatable=0;points=[[0,0.5],[1,0.5]];portConstraint=eastwest;whiteSpace=wrap;html=1;" parent="e_0R9Qmwsrqz8bwr_fZI-1" vertex="1">
          <mxGeometry y="86" width="270" height="26" as="geometry" />
        </mxCell>
        <mxCell id="e_0R9Qmwsrqz8bwr_fZI-4" value="&lt;div&gt;+ registrarSolicitudCredito(solicitud ; Solicitud)&lt;br&gt;&lt;/div&gt;" style="text;strokeColor=none;fillColor=none;align=left;verticalAlign=top;spacingLeft=4;spacingRight=4;overflow=hidden;rotatable=0;points=[[0,0.5],[1,0.5]];portConstraint=eastwest;whiteSpace=wrap;html=1;" parent="e_0R9Qmwsrqz8bwr_fZI-1" vertex="1">
          <mxGeometry y="112" width="270" height="26" as="geometry" />
        </mxCell>
        <mxCell id="e_0R9Qmwsrqz8bwr_fZI-7" value="Cliente" style="swimlane;fontStyle=1;align=center;verticalAlign=top;childLayout=stackLayout;horizontal=1;startSize=26;horizontalStack=0;resizeParent=1;resizeParentMax=0;resizeLast=0;collapsible=1;marginBottom=0;whiteSpace=wrap;html=1;" parent="1" vertex="1">
          <mxGeometry x="-150" y="100" width="320" height="216" as="geometry" />
        </mxCell>
        <mxCell id="e_0R9Qmwsrqz8bwr_fZI-8" value="- nombre: String" style="text;strokeColor=none;fillColor=none;align=left;verticalAlign=top;spacingLeft=4;spacingRight=4;overflow=hidden;rotatable=0;points=[[0,0.5],[1,0.5]];portConstraint=eastwest;whiteSpace=wrap;html=1;" parent="e_0R9Qmwsrqz8bwr_fZI-7" vertex="1">
          <mxGeometry y="26" width="320" height="26" as="geometry" />
        </mxCell>
        <mxCell id="e_0R9Qmwsrqz8bwr_fZI-9" value="&lt;div&gt;- apellido: String&lt;/div&gt;" style="text;strokeColor=none;fillColor=none;align=left;verticalAlign=top;spacingLeft=4;spacingRight=4;overflow=hidden;rotatable=0;points=[[0,0.5],[1,0.5]];portConstraint=eastwest;whiteSpace=wrap;html=1;" parent="e_0R9Qmwsrqz8bwr_fZI-7" vertex="1">
          <mxGeometry y="52" width="320" height="26" as="geometry" />
        </mxCell>
        <mxCell id="e_0R9Qmwsrqz8bwr_fZI-14" value="&lt;div&gt;- direccion : String&lt;/div&gt;" style="text;strokeColor=none;fillColor=none;align=left;verticalAlign=top;spacingLeft=4;spacingRight=4;overflow=hidden;rotatable=0;points=[[0,0.5],[1,0.5]];portConstraint=eastwest;whiteSpace=wrap;html=1;" parent="e_0R9Qmwsrqz8bwr_fZI-7" vertex="1">
          <mxGeometry y="78" width="320" height="26" as="geometry" />
        </mxCell>
        <mxCell id="e_0R9Qmwsrqz8bwr_fZI-13" value="- edad : int" style="text;strokeColor=none;fillColor=none;align=left;verticalAlign=top;spacingLeft=4;spacingRight=4;overflow=hidden;rotatable=0;points=[[0,0.5],[1,0.5]];portConstraint=eastwest;whiteSpace=wrap;html=1;" parent="e_0R9Qmwsrqz8bwr_fZI-7" vertex="1">
          <mxGeometry y="104" width="320" height="26" as="geometry" />
        </mxCell>
        <mxCell id="e_0R9Qmwsrqz8bwr_fZI-15" value="- sueldoNetoMensual : double" style="text;strokeColor=none;fillColor=none;align=left;verticalAlign=top;spacingLeft=4;spacingRight=4;overflow=hidden;rotatable=0;points=[[0,0.5],[1,0.5]];portConstraint=eastwest;whiteSpace=wrap;html=1;" parent="e_0R9Qmwsrqz8bwr_fZI-7" vertex="1">
          <mxGeometry y="130" width="320" height="26" as="geometry" />
        </mxCell>
        <mxCell id="e_0R9Qmwsrqz8bwr_fZI-16" value="- sueldoNetoAnual : double" style="text;strokeColor=none;fillColor=none;align=left;verticalAlign=top;spacingLeft=4;spacingRight=4;overflow=hidden;rotatable=0;points=[[0,0.5],[1,0.5]];portConstraint=eastwest;whiteSpace=wrap;html=1;" parent="e_0R9Qmwsrqz8bwr_fZI-7" vertex="1">
          <mxGeometry y="156" width="320" height="26" as="geometry" />
        </mxCell>
        <mxCell id="e_0R9Qmwsrqz8bwr_fZI-10" value="" style="line;strokeWidth=1;fillColor=none;align=left;verticalAlign=middle;spacingTop=-1;spacingLeft=3;spacingRight=3;rotatable=0;labelPosition=right;points=[];portConstraint=eastwest;strokeColor=inherit;" parent="e_0R9Qmwsrqz8bwr_fZI-7" vertex="1">
          <mxGeometry y="182" width="320" height="8" as="geometry" />
        </mxCell>
        <mxCell id="e_0R9Qmwsrqz8bwr_fZI-12" value="+ solicitarCredito(banco : Banco, solicitud : Solicitud)" style="text;strokeColor=none;fillColor=none;align=left;verticalAlign=top;spacingLeft=4;spacingRight=4;overflow=hidden;rotatable=0;points=[[0,0.5],[1,0.5]];portConstraint=eastwest;whiteSpace=wrap;html=1;" parent="e_0R9Qmwsrqz8bwr_fZI-7" vertex="1">
          <mxGeometry y="190" width="320" height="26" as="geometry" />
        </mxCell>
        <mxCell id="e_0R9Qmwsrqz8bwr_fZI-17" value="&lt;div&gt;&amp;lt;&amp;lt;Abstract&amp;gt;&amp;gt;&lt;/div&gt;&lt;div&gt;Solicitud&lt;/div&gt;&lt;div&gt;&lt;br&gt;&lt;/div&gt;" style="swimlane;fontStyle=1;align=center;verticalAlign=top;childLayout=stackLayout;horizontal=1;startSize=40;horizontalStack=0;resizeParent=1;resizeParentMax=0;resizeLast=0;collapsible=1;marginBottom=0;whiteSpace=wrap;html=1;" parent="1" vertex="1">
          <mxGeometry x="910" y="100" width="330" height="230" as="geometry" />
        </mxCell>
        <mxCell id="e_0R9Qmwsrqz8bwr_fZI-18" value="- esValido : Boolean" style="text;strokeColor=none;fillColor=none;align=left;verticalAlign=top;spacingLeft=4;spacingRight=4;overflow=hidden;rotatable=0;points=[[0,0.5],[1,0.5]];portConstraint=eastwest;whiteSpace=wrap;html=1;" parent="e_0R9Qmwsrqz8bwr_fZI-17" vertex="1">
          <mxGeometry y="40" width="330" height="26" as="geometry" />
        </mxCell>
        <mxCell id="e_0R9Qmwsrqz8bwr_fZI-19" value="- solicitante : Cliente" style="text;strokeColor=none;fillColor=none;align=left;verticalAlign=top;spacingLeft=4;spacingRight=4;overflow=hidden;rotatable=0;points=[[0,0.5],[1,0.5]];portConstraint=eastwest;whiteSpace=wrap;html=1;" parent="e_0R9Qmwsrqz8bwr_fZI-17" vertex="1">
          <mxGeometry y="66" width="330" height="26" as="geometry" />
        </mxCell>
        <mxCell id="e_0R9Qmwsrqz8bwr_fZI-20" value="- montoSolicitado : double" style="text;strokeColor=none;fillColor=none;align=left;verticalAlign=top;spacingLeft=4;spacingRight=4;overflow=hidden;rotatable=0;points=[[0,0.5],[1,0.5]];portConstraint=eastwest;whiteSpace=wrap;html=1;" parent="e_0R9Qmwsrqz8bwr_fZI-17" vertex="1">
          <mxGeometry y="92" width="330" height="26" as="geometry" />
        </mxCell>
        <mxCell id="e_0R9Qmwsrqz8bwr_fZI-21" value="- mesesPlazo : int" style="text;strokeColor=none;fillColor=none;align=left;verticalAlign=top;spacingLeft=4;spacingRight=4;overflow=hidden;rotatable=0;points=[[0,0.5],[1,0.5]];portConstraint=eastwest;whiteSpace=wrap;html=1;" parent="e_0R9Qmwsrqz8bwr_fZI-17" vertex="1">
          <mxGeometry y="118" width="330" height="26" as="geometry" />
        </mxCell>
        <mxCell id="e_0R9Qmwsrqz8bwr_fZI-24" value="" style="line;strokeWidth=1;fillColor=none;align=left;verticalAlign=middle;spacingTop=-1;spacingLeft=3;spacingRight=3;rotatable=0;labelPosition=right;points=[];portConstraint=eastwest;strokeColor=inherit;" parent="e_0R9Qmwsrqz8bwr_fZI-17" vertex="1">
          <mxGeometry y="144" width="330" height="8" as="geometry" />
        </mxCell>
        <mxCell id="qLwOZtRAHKP817nh7ZBu-7" value="+ Solicitud( solicitante : Cliente, monto : double, plazo : int)" style="text;strokeColor=none;fillColor=none;align=left;verticalAlign=top;spacingLeft=4;spacingRight=4;overflow=hidden;rotatable=0;points=[[0,0.5],[1,0.5]];portConstraint=eastwest;whiteSpace=wrap;html=1;" vertex="1" parent="e_0R9Qmwsrqz8bwr_fZI-17">
          <mxGeometry y="152" width="330" height="26" as="geometry" />
        </mxCell>
        <mxCell id="e_0R9Qmwsrqz8bwr_fZI-26" value="&lt;div&gt;+ montoCuota() : double&lt;/div&gt;" style="text;strokeColor=none;fillColor=none;align=left;verticalAlign=top;spacingLeft=4;spacingRight=4;overflow=hidden;rotatable=0;points=[[0,0.5],[1,0.5]];portConstraint=eastwest;whiteSpace=wrap;html=1;" parent="e_0R9Qmwsrqz8bwr_fZI-17" vertex="1">
          <mxGeometry y="178" width="330" height="26" as="geometry" />
        </mxCell>
        <mxCell id="e_0R9Qmwsrqz8bwr_fZI-25" value="+ validar()" style="text;strokeColor=none;fillColor=none;align=left;verticalAlign=top;spacingLeft=4;spacingRight=4;overflow=hidden;rotatable=0;points=[[0,0.5],[1,0.5]];portConstraint=eastwest;whiteSpace=wrap;html=1;" parent="e_0R9Qmwsrqz8bwr_fZI-17" vertex="1">
          <mxGeometry y="204" width="330" height="26" as="geometry" />
        </mxCell>
        <mxCell id="e_0R9Qmwsrqz8bwr_fZI-27" value="SolicitudPersonal" style="swimlane;fontStyle=1;align=center;verticalAlign=top;childLayout=stackLayout;horizontal=1;startSize=40;horizontalStack=0;resizeParent=1;resizeParentMax=0;resizeLast=0;collapsible=1;marginBottom=0;whiteSpace=wrap;html=1;" parent="1" vertex="1">
          <mxGeometry x="630" y="560" width="320" height="74" as="geometry" />
        </mxCell>
        <mxCell id="e_0R9Qmwsrqz8bwr_fZI-32" value="" style="line;strokeWidth=1;fillColor=none;align=left;verticalAlign=middle;spacingTop=-1;spacingLeft=3;spacingRight=3;rotatable=0;labelPosition=right;points=[];portConstraint=eastwest;strokeColor=inherit;" parent="e_0R9Qmwsrqz8bwr_fZI-27" vertex="1">
          <mxGeometry y="40" width="320" height="8" as="geometry" />
        </mxCell>
        <mxCell id="e_0R9Qmwsrqz8bwr_fZI-34" value="+ validar()" style="text;strokeColor=none;fillColor=none;align=left;verticalAlign=top;spacingLeft=4;spacingRight=4;overflow=hidden;rotatable=0;points=[[0,0.5],[1,0.5]];portConstraint=eastwest;whiteSpace=wrap;html=1;" parent="e_0R9Qmwsrqz8bwr_fZI-27" vertex="1">
          <mxGeometry y="48" width="320" height="26" as="geometry" />
        </mxCell>
        <mxCell id="e_0R9Qmwsrqz8bwr_fZI-43" value="SolicitudHipotecario" style="swimlane;fontStyle=1;align=center;verticalAlign=top;childLayout=stackLayout;horizontal=1;startSize=40;horizontalStack=0;resizeParent=1;resizeParentMax=0;resizeLast=0;collapsible=1;marginBottom=0;whiteSpace=wrap;html=1;" parent="1" vertex="1">
          <mxGeometry x="1160" y="550" width="320" height="126" as="geometry" />
        </mxCell>
        <mxCell id="qLwOZtRAHKP817nh7ZBu-9" value="&lt;div&gt;- garantia : PropiedadInmobiliaria&lt;/div&gt;&lt;div&gt;&lt;br&gt;&lt;/div&gt;" style="text;strokeColor=none;fillColor=none;align=left;verticalAlign=top;spacingLeft=4;spacingRight=4;overflow=hidden;rotatable=0;points=[[0,0.5],[1,0.5]];portConstraint=eastwest;whiteSpace=wrap;html=1;" vertex="1" parent="e_0R9Qmwsrqz8bwr_fZI-43">
          <mxGeometry y="40" width="320" height="26" as="geometry" />
        </mxCell>
        <mxCell id="e_0R9Qmwsrqz8bwr_fZI-44" value="" style="line;strokeWidth=1;fillColor=none;align=left;verticalAlign=middle;spacingTop=-1;spacingLeft=3;spacingRight=3;rotatable=0;labelPosition=right;points=[];portConstraint=eastwest;strokeColor=inherit;" parent="e_0R9Qmwsrqz8bwr_fZI-43" vertex="1">
          <mxGeometry y="66" width="320" height="8" as="geometry" />
        </mxCell>
        <mxCell id="e_0R9Qmwsrqz8bwr_fZI-45" value="+ SolicitudHipotecario(garantia : PropiedadInmobiliaria)" style="text;strokeColor=none;fillColor=none;align=left;verticalAlign=top;spacingLeft=4;spacingRight=4;overflow=hidden;rotatable=0;points=[[0,0.5],[1,0.5]];portConstraint=eastwest;whiteSpace=wrap;html=1;" parent="e_0R9Qmwsrqz8bwr_fZI-43" vertex="1">
          <mxGeometry y="74" width="320" height="26" as="geometry" />
        </mxCell>
        <mxCell id="qLwOZtRAHKP817nh7ZBu-10" value="+ validar()" style="text;strokeColor=none;fillColor=none;align=left;verticalAlign=top;spacingLeft=4;spacingRight=4;overflow=hidden;rotatable=0;points=[[0,0.5],[1,0.5]];portConstraint=eastwest;whiteSpace=wrap;html=1;" vertex="1" parent="e_0R9Qmwsrqz8bwr_fZI-43">
          <mxGeometry y="100" width="320" height="26" as="geometry" />
        </mxCell>
        <mxCell id="qLwOZtRAHKP817nh7ZBu-1" value="PropiedadInmobiliaria" style="swimlane;fontStyle=1;align=center;verticalAlign=top;childLayout=stackLayout;horizontal=1;startSize=40;horizontalStack=0;resizeParent=1;resizeParentMax=0;resizeLast=0;collapsible=1;marginBottom=0;whiteSpace=wrap;html=1;" vertex="1" parent="1">
          <mxGeometry x="1640" y="550" width="490" height="152" as="geometry" />
        </mxCell>
        <mxCell id="qLwOZtRAHKP817nh7ZBu-4" value="&lt;div&gt;- descripcion : String&lt;/div&gt;" style="text;strokeColor=none;fillColor=none;align=left;verticalAlign=top;spacingLeft=4;spacingRight=4;overflow=hidden;rotatable=0;points=[[0,0.5],[1,0.5]];portConstraint=eastwest;whiteSpace=wrap;html=1;" vertex="1" parent="qLwOZtRAHKP817nh7ZBu-1">
          <mxGeometry y="40" width="490" height="26" as="geometry" />
        </mxCell>
        <mxCell id="qLwOZtRAHKP817nh7ZBu-5" value="&lt;div&gt;- direccion : String&lt;/div&gt;" style="text;strokeColor=none;fillColor=none;align=left;verticalAlign=top;spacingLeft=4;spacingRight=4;overflow=hidden;rotatable=0;points=[[0,0.5],[1,0.5]];portConstraint=eastwest;whiteSpace=wrap;html=1;" vertex="1" parent="qLwOZtRAHKP817nh7ZBu-1">
          <mxGeometry y="66" width="490" height="26" as="geometry" />
        </mxCell>
        <mxCell id="qLwOZtRAHKP817nh7ZBu-6" value="&lt;div&gt;- valorFiscal : double&lt;br&gt;&lt;/div&gt;" style="text;strokeColor=none;fillColor=none;align=left;verticalAlign=top;spacingLeft=4;spacingRight=4;overflow=hidden;rotatable=0;points=[[0,0.5],[1,0.5]];portConstraint=eastwest;whiteSpace=wrap;html=1;" vertex="1" parent="qLwOZtRAHKP817nh7ZBu-1">
          <mxGeometry y="92" width="490" height="26" as="geometry" />
        </mxCell>
        <mxCell id="qLwOZtRAHKP817nh7ZBu-2" value="" style="line;strokeWidth=1;fillColor=none;align=left;verticalAlign=middle;spacingTop=-1;spacingLeft=3;spacingRight=3;rotatable=0;labelPosition=right;points=[];portConstraint=eastwest;strokeColor=inherit;" vertex="1" parent="qLwOZtRAHKP817nh7ZBu-1">
          <mxGeometry y="118" width="490" height="8" as="geometry" />
        </mxCell>
        <mxCell id="qLwOZtRAHKP817nh7ZBu-8" value="+ PropiedadInmobiliaria(descripcion : String, direccion: String, valorFiscal : double)" style="text;strokeColor=none;fillColor=none;align=left;verticalAlign=top;spacingLeft=4;spacingRight=4;overflow=hidden;rotatable=0;points=[[0,0.5],[1,0.5]];portConstraint=eastwest;whiteSpace=wrap;html=1;" vertex="1" parent="qLwOZtRAHKP817nh7ZBu-1">
          <mxGeometry y="126" width="490" height="26" as="geometry" />
        </mxCell>
        <mxCell id="qLwOZtRAHKP817nh7ZBu-11" value="Extends" style="endArrow=block;endSize=16;endFill=0;html=1;rounded=0;entryX=0;entryY=1;entryDx=0;entryDy=0;exitX=0.5;exitY=0;exitDx=0;exitDy=0;" edge="1" parent="1" source="e_0R9Qmwsrqz8bwr_fZI-27" target="e_0R9Qmwsrqz8bwr_fZI-17">
          <mxGeometry width="160" relative="1" as="geometry">
            <mxPoint x="780" y="550" as="sourcePoint" />
            <mxPoint x="870" y="440" as="targetPoint" />
          </mxGeometry>
        </mxCell>
        <mxCell id="qLwOZtRAHKP817nh7ZBu-12" value="Extends" style="endArrow=block;endSize=16;endFill=0;html=1;rounded=0;entryX=1.006;entryY=1.038;entryDx=0;entryDy=0;entryPerimeter=0;exitX=0.5;exitY=0;exitDx=0;exitDy=0;" edge="1" parent="1" source="e_0R9Qmwsrqz8bwr_fZI-43" target="e_0R9Qmwsrqz8bwr_fZI-25">
          <mxGeometry width="160" relative="1" as="geometry">
            <mxPoint x="790" y="560" as="sourcePoint" />
            <mxPoint x="920" y="340" as="targetPoint" />
          </mxGeometry>
        </mxCell>
        <mxCell id="qLwOZtRAHKP817nh7ZBu-13" value="name" style="endArrow=block;endFill=1;html=1;edgeStyle=orthogonalEdgeStyle;align=left;verticalAlign=top;rounded=0;entryX=1;entryY=0;entryDx=0;entryDy=0;exitX=0;exitY=0;exitDx=0;exitDy=0;" edge="1" parent="1" source="qLwOZtRAHKP817nh7ZBu-1" target="e_0R9Qmwsrqz8bwr_fZI-43">
          <mxGeometry x="-1" relative="1" as="geometry">
            <mxPoint x="1480" y="440" as="sourcePoint" />
            <mxPoint x="1640" y="440" as="targetPoint" />
          </mxGeometry>
        </mxCell>
        <mxCell id="qLwOZtRAHKP817nh7ZBu-14" value="1" style="edgeLabel;resizable=0;html=1;align=left;verticalAlign=bottom;" connectable="0" vertex="1" parent="qLwOZtRAHKP817nh7ZBu-13">
          <mxGeometry x="-1" relative="1" as="geometry" />
        </mxCell>
        <mxCell id="qLwOZtRAHKP817nh7ZBu-15" value="1" style="text;html=1;align=center;verticalAlign=middle;resizable=0;points=[];autosize=1;strokeColor=none;fillColor=none;" vertex="1" parent="1">
          <mxGeometry x="1465" y="518" width="30" height="30" as="geometry" />
        </mxCell>
        <mxCell id="qLwOZtRAHKP817nh7ZBu-16" value="" style="endArrow=block;endFill=1;html=1;edgeStyle=orthogonalEdgeStyle;align=left;verticalAlign=top;rounded=0;entryX=0;entryY=0;entryDx=0;entryDy=0;exitX=1;exitY=0;exitDx=0;exitDy=0;" edge="1" parent="1" source="e_0R9Qmwsrqz8bwr_fZI-7" target="e_0R9Qmwsrqz8bwr_fZI-1">
          <mxGeometry x="-1" relative="1" as="geometry">
            <mxPoint x="170" y="30" as="sourcePoint" />
            <mxPoint x="630" y="260" as="targetPoint" />
            <Array as="points">
              <mxPoint x="170" y="90" />
              <mxPoint x="320" y="90" />
            </Array>
          </mxGeometry>
        </mxCell>
        <mxCell id="qLwOZtRAHKP817nh7ZBu-19" value="*" style="text;html=1;align=center;verticalAlign=middle;resizable=0;points=[];autosize=1;strokeColor=none;fillColor=none;" vertex="1" parent="1">
          <mxGeometry x="165" y="58" width="30" height="30" as="geometry" />
        </mxCell>
        <mxCell id="qLwOZtRAHKP817nh7ZBu-20" value="1" style="text;html=1;align=center;verticalAlign=middle;resizable=0;points=[];autosize=1;strokeColor=none;fillColor=none;" vertex="1" parent="1">
          <mxGeometry x="310" y="58" width="30" height="30" as="geometry" />
        </mxCell>
        <mxCell id="qLwOZtRAHKP817nh7ZBu-21" value="" style="endArrow=block;endFill=1;html=1;edgeStyle=orthogonalEdgeStyle;align=left;verticalAlign=top;rounded=0;entryX=0;entryY=0;entryDx=0;entryDy=0;exitX=1;exitY=0;exitDx=0;exitDy=0;" edge="1" parent="1" target="e_0R9Qmwsrqz8bwr_fZI-17">
          <mxGeometry x="-1" relative="1" as="geometry">
            <mxPoint x="590" y="98" as="sourcePoint" />
            <mxPoint x="740" y="98" as="targetPoint" />
            <Array as="points">
              <mxPoint x="590" y="88" />
              <mxPoint x="740" y="88" />
              <mxPoint x="740" y="100" />
            </Array>
          </mxGeometry>
        </mxCell>
        <mxCell id="qLwOZtRAHKP817nh7ZBu-22" value="1" style="text;html=1;align=center;verticalAlign=middle;resizable=0;points=[];autosize=1;strokeColor=none;fillColor=none;" vertex="1" parent="1">
          <mxGeometry x="585" y="58" width="30" height="30" as="geometry" />
        </mxCell>
        <mxCell id="qLwOZtRAHKP817nh7ZBu-23" value="*" style="text;html=1;align=center;verticalAlign=middle;resizable=0;points=[];autosize=1;strokeColor=none;fillColor=none;" vertex="1" parent="1">
          <mxGeometry x="885" y="68" width="30" height="30" as="geometry" />
        </mxCell>
      </root>
    </mxGraphModel>
  </diagram>
</mxfile>
